<svg width="180" height="142" viewBox="0 0 180 142" fill="none" xmlns="http://www.w3.org/2000/svg">
<rect x="125" y="56" width="38" height="43" fill="#F2E9D0"/>
<path d="M2.98006 45V14.3479H14.8152C16.5323 14.3479 18.0294 14.7027 19.3066 15.4122C20.5837 16.1218 21.5771 17.0796 22.2866 18.2859C22.9962 19.4779 23.3509 20.7976 23.3509 22.2451C23.3509 23.8912 22.911 25.36 22.0312 26.6513C21.1514 27.9285 19.9735 28.8154 18.4977 29.3121L18.4551 28.2691C20.4418 28.8367 22.0028 29.8301 23.1381 31.2491C24.2733 32.6682 24.841 34.3853 24.841 36.4004C24.841 38.1742 24.4649 39.7068 23.7128 40.9982C22.9607 42.2754 21.9035 43.2616 20.5412 43.957C19.1788 44.6523 17.5966 45 15.7943 45H2.98006ZM6.13042 41.9986H15.028C16.2768 41.9986 17.3979 41.7787 18.3913 41.3388C19.3846 40.8847 20.1651 40.2461 20.7327 39.423C21.3146 38.6 21.6055 37.6066 21.6055 36.443C21.6055 35.3077 21.3429 34.286 20.8179 33.3777C20.2928 32.4695 19.5762 31.7458 18.668 31.2066C17.774 30.6531 16.7522 30.3764 15.6028 30.3764H6.13042V41.9986ZM6.13042 27.4176H14.7939C15.7731 27.4176 16.6671 27.1977 17.4759 26.7577C18.2848 26.3036 18.9234 25.6863 19.3917 24.9059C19.8742 24.1254 20.1154 23.2242 20.1154 22.2025C20.1154 20.755 19.6117 19.5772 18.6041 18.669C17.6108 17.7608 16.3407 17.3067 14.7939 17.3067H6.13042V27.4176ZM37.8801 45.5747C36.5036 45.5747 35.2974 45.3619 34.2614 44.9361C33.2397 44.5104 32.367 43.9357 31.6432 43.212C30.9337 42.4882 30.359 41.6652 29.919 40.7428C29.4791 39.8062 29.1598 38.8199 28.9612 37.784C28.7625 36.7339 28.6632 35.6908 28.6632 34.6549V22.0109H31.8135V33.7396C31.8135 35.0026 31.9341 36.1733 32.1754 37.2518C32.4166 38.3303 32.7998 39.274 33.3248 40.0829C33.8641 40.8776 34.5523 41.4949 35.3896 41.9348C36.241 42.3747 37.2699 42.5947 38.4761 42.5947C39.583 42.5947 40.555 42.4031 41.3923 42.0199C42.2437 41.6368 42.9533 41.0904 43.5209 40.3809C44.1027 39.6572 44.5426 38.7844 44.8407 37.7627C45.1387 36.7268 45.2877 35.5631 45.2877 34.2718L47.5014 34.7614C47.5014 37.117 47.0899 39.0966 46.2668 40.7002C45.4438 42.3038 44.3085 43.5171 42.861 44.3401C41.4136 45.1632 39.7533 45.5747 37.8801 45.5747ZM45.607 45V39.3379H45.2877V22.0109H48.4167V45H45.607ZM62.9445 45.6173C60.2483 45.6173 58.0274 45.0355 56.282 43.8718C54.5507 42.7082 53.4864 41.0904 53.089 39.0186L56.282 38.4864C56.6226 39.792 57.396 40.835 58.6022 41.6155C59.8226 42.3818 61.3268 42.765 63.1148 42.765C64.8603 42.765 66.2368 42.4031 67.2444 41.6794C68.2519 40.9414 68.7557 39.941 68.7557 38.678C68.7557 37.9685 68.5925 37.3937 68.2661 36.9538C67.9539 36.4997 67.3082 36.0811 66.329 35.6979C65.3499 35.3148 63.8882 34.8607 61.9441 34.3356C59.8581 33.768 58.2261 33.2004 57.0483 32.6327C55.8704 32.0651 55.0332 31.4123 54.5365 30.6744C54.0398 29.9223 53.7915 29.007 53.7915 27.9285C53.7915 26.6229 54.1605 25.4806 54.8984 24.5014C55.6363 23.5081 56.658 22.7418 57.9636 22.2025C59.2691 21.6491 60.7875 21.3723 62.5188 21.3723C64.2501 21.3723 65.7969 21.6562 67.1592 22.2238C68.5357 22.7772 69.6426 23.5577 70.4799 24.5653C71.3171 25.5728 71.8138 26.7436 71.9699 28.0775L68.777 28.6522C68.5641 27.3041 67.89 26.2398 66.7548 25.4593C65.6337 24.6646 64.2075 24.2531 62.4763 24.2247C60.8443 24.1821 59.5175 24.4943 58.4957 25.1613C57.474 25.8141 56.9631 26.6868 56.9631 27.7795C56.9631 28.3897 57.1476 28.9147 57.5166 29.3547C57.8855 29.7804 58.5525 30.1848 59.5175 30.568C60.4966 30.9511 61.8873 31.3698 63.6896 31.8239C65.804 32.3631 67.4643 32.9307 68.6705 33.5268C69.8767 34.1228 70.7353 34.8252 71.2462 35.6341C71.757 36.443 72.0125 37.4434 72.0125 38.6354C72.0125 40.8066 71.2036 42.5166 69.5858 43.7654C67.9823 45 65.7685 45.6173 62.9445 45.6173ZM89.2496 45C87.9582 45.2696 86.6811 45.3761 85.4181 45.3193C84.1693 45.2625 83.0482 44.9929 82.0549 44.5104C81.0757 44.0279 80.3307 43.2758 79.8198 42.2541C79.4083 41.4026 79.1812 40.5441 79.1387 39.6785C79.1103 38.7986 79.0961 37.7982 79.0961 36.6771V15.6251H82.2039V36.5494C82.2039 37.5144 82.211 38.3232 82.2252 38.976C82.2535 39.6146 82.4025 40.1822 82.6722 40.6789C83.183 41.6297 83.9919 42.1973 85.0988 42.3818C86.2199 42.5663 87.6035 42.5237 89.2496 42.2541V45ZM74.179 24.693V22.0109H89.2496V24.693H74.179ZM110.382 45V33.2713C110.382 31.9941 110.261 30.8234 110.02 29.7591C109.779 28.6806 109.389 27.744 108.85 26.9493C108.324 26.1405 107.636 25.5161 106.785 25.0761C105.947 24.6362 104.926 24.4163 103.72 24.4163C102.613 24.4163 101.633 24.6078 100.782 24.991C99.9448 25.3741 99.2352 25.9276 98.6534 26.6513C98.0858 27.3609 97.653 28.2265 97.355 29.2482C97.057 30.27 96.908 31.4336 96.908 32.7392L94.6942 32.2496C94.6942 29.8939 95.1057 27.9143 95.9288 26.3107C96.7519 24.7072 97.8871 23.4939 99.3346 22.6708C100.782 21.8477 102.442 21.4362 104.316 21.4362C105.692 21.4362 106.891 21.6491 107.913 22.0748C108.949 22.5005 109.822 23.0752 110.531 23.799C111.255 24.5227 111.837 25.3529 112.277 26.2895C112.716 27.2119 113.036 28.1981 113.234 29.2482C113.433 30.2842 113.532 31.3201 113.532 32.356V45H110.382ZM93.7576 45V14.3479H96.5887V31.6536H96.908V45H93.7576ZM125.634 45.6386C123.902 45.6386 122.448 45.3264 121.27 44.702C120.106 44.0776 119.234 43.2474 118.652 42.2115C118.07 41.1756 117.779 40.0474 117.779 38.827C117.779 37.5782 118.027 36.5139 118.524 35.6341C119.035 34.7401 119.723 34.0092 120.589 33.4416C121.469 32.874 122.483 32.4412 123.633 32.1432C124.796 31.8593 126.081 31.611 127.486 31.3981C128.905 31.1711 130.288 30.9795 131.636 30.8234C132.999 30.6531 134.191 30.4899 135.212 30.3338L134.106 31.015C134.148 28.7445 133.708 27.0629 132.786 25.9702C131.863 24.8775 130.26 24.3311 127.975 24.3311C126.4 24.3311 125.066 24.6859 123.973 25.3954C122.895 26.105 122.136 27.226 121.696 28.7586L118.652 27.8646C119.177 25.807 120.234 24.2105 121.823 23.0752C123.413 21.94 125.478 21.3723 128.018 21.3723C130.118 21.3723 131.899 21.7697 133.361 22.5644C134.836 23.3449 135.879 24.4801 136.49 25.9702C136.773 26.6371 136.958 27.3821 137.043 28.2052C137.128 29.0283 137.171 29.8655 137.171 30.717V45H134.382V39.2314L135.191 39.572C134.411 41.5445 133.197 43.0488 131.551 44.0847C129.905 45.1206 127.933 45.6386 125.634 45.6386ZM125.996 42.9352C127.457 42.9352 128.734 42.6727 129.827 42.1477C130.92 41.6226 131.8 40.906 132.467 39.9977C133.133 39.0753 133.566 38.0394 133.765 36.89C133.935 36.152 134.028 35.3432 134.042 34.4633C134.056 33.5693 134.063 32.9024 134.063 32.4624L135.255 33.0797C134.191 33.2217 133.034 33.3636 131.785 33.5055C130.551 33.6474 129.33 33.8106 128.124 33.995C126.932 34.1795 125.854 34.3995 124.889 34.6549C124.236 34.8394 123.604 35.1019 122.994 35.4425C122.384 35.7689 121.88 36.2088 121.483 36.7623C121.1 37.3157 120.908 38.0039 120.908 38.827C120.908 39.494 121.071 40.1397 121.398 40.7641C121.738 41.3884 122.278 41.9064 123.015 42.3179C123.768 42.7295 124.761 42.9352 125.996 42.9352ZM159.315 45V33.2713C159.315 31.9941 159.195 30.8234 158.954 29.7591C158.712 28.6806 158.322 27.744 157.783 26.9493C157.258 26.1405 156.569 25.5161 155.718 25.0761C154.881 24.6362 153.859 24.4163 152.653 24.4163C151.546 24.4163 150.567 24.6078 149.715 24.991C148.878 25.3741 148.169 25.9276 147.587 26.6513C147.019 27.3609 146.586 28.2265 146.288 29.2482C145.99 30.27 145.841 31.4336 145.841 32.7392L143.627 32.2496C143.627 29.8939 144.039 27.9143 144.862 26.3107C145.685 24.7072 146.82 23.4939 148.268 22.6708C149.715 21.8477 151.376 21.4362 153.249 21.4362C154.625 21.4362 155.824 21.6491 156.846 22.0748C157.882 22.5005 158.755 23.0752 159.464 23.799C160.188 24.5227 160.77 25.3529 161.21 26.2895C161.65 27.2119 161.969 28.1981 162.168 29.2482C162.366 30.2842 162.466 31.3201 162.466 32.356V45H159.315ZM142.691 45V22.0109H145.522V27.6731H145.841V45H142.691Z" fill="#BB5A5A"/>
<path d="M5.09843 99V53.1142H13.7657V90.9062H33.5221V99H5.09843ZM35.7537 99L49.7744 53.1142H62.7116L76.7323 99H67.8101L55.3189 58.5312H56.9759L44.676 99H35.7537ZM44.1661 89.4405V81.3467H68.3836V89.4405H44.1661ZM82.4436 99V53.1142H100.798C104.069 53.1142 106.714 53.7727 108.732 55.0898C110.751 56.3857 112.227 58.0214 113.162 59.997C114.096 61.9727 114.564 63.9696 114.564 65.9877C114.564 68.5581 113.98 70.6931 112.811 72.3926C111.664 74.0921 110.081 75.2286 108.063 75.8022V74.2089C110.931 74.8037 113.077 76.1314 114.5 78.192C115.945 80.2527 116.667 82.5576 116.667 85.1068C116.667 87.8472 116.157 90.2583 115.137 92.3402C114.139 94.422 112.609 96.0578 110.549 97.2474C108.488 98.4158 105.896 99 102.774 99H82.4436ZM91.2384 90.8425H101.881C103.05 90.8425 104.091 90.5982 105.004 90.1096C105.918 89.5998 106.629 88.8987 107.139 88.0065C107.67 87.0931 107.936 86.0203 107.936 84.7881C107.936 83.7047 107.713 82.7381 107.267 81.8884C106.82 81.0387 106.141 80.3695 105.227 79.8809C104.335 79.3711 103.22 79.1161 101.881 79.1161H91.2384V90.8425ZM91.2384 71.0224H100.671C101.648 71.0224 102.519 70.8524 103.283 70.5125C104.048 70.1727 104.654 69.6522 105.1 68.9512C105.546 68.2289 105.769 67.3048 105.769 66.1789C105.769 64.7768 105.333 63.5978 104.462 62.6419C103.591 61.6859 102.327 61.2079 100.671 61.2079H91.2384V71.0224Z" fill="#BB5A5A"/>
</svg>
